<svg width="189" height="147" viewBox="0 0 189 147" fill="none" xmlns="http://www.w3.org/2000/svg">
<g clip-path="url(#clip0_2_222)">
<path d="M99.3511 5.24203H51.2279V58.0506H99.3511V5.24203Z" fill="#F6F2F8"/>
<path d="M104.202 0.194153H56.0791V53.0027H104.202V0.194153Z" stroke="#392D3E" stroke-width="2" stroke-miterlimit="10"/>
<path d="M61.1963 47.0451H58.6016V49.6411H61.1963V47.0451Z" fill="#B725E8"/>
<path d="M64.9441 47.0451H62.3495V49.6411H64.9441V47.0451Z" fill="#392D3E"/>
<path d="M68.692 47.0451H66.0973V49.6411H68.692V47.0451Z" fill="#575A89"/>
<path d="M97.7988 48.1726H87.7084V48.5819H97.7988V48.1726Z" fill="#392D3E"/>
<path d="M97.7988 49.4004H87.7084V49.8097H97.7988V49.4004Z" fill="#392D3E"/>
<path d="M97.7988 50.6283H87.7084V51.0376H97.7988V50.6283Z" fill="#392D3E"/>
<path d="M80.1407 9.51331V13.7846C82.6736 13.7846 85.1497 14.5361 87.2558 15.9441C89.3619 17.3521 91.0034 19.3534 91.9728 21.6948C92.9421 24.0362 93.1957 26.6126 92.7016 29.0983C92.2074 31.5839 90.9877 33.8671 89.1966 35.6592L92.2152 38.6794C94.6033 36.29 96.2296 33.2458 96.8885 29.9316C97.5474 26.6174 97.2092 23.1821 95.9168 20.0602C94.6244 16.9383 92.4357 14.27 89.6276 12.3927C86.8194 10.5153 83.518 9.51331 80.1407 9.51331Z" fill="#392D3E"/>
<path d="M92.2152 38.6794L89.1966 35.6592C87.007 37.8504 84.0979 39.1733 81.0081 39.3829C77.9184 39.5925 74.8574 38.6746 72.3922 36.7991L69.8084 40.2008C73.0958 42.7007 77.1772 43.924 81.2969 43.6443C85.4166 43.3646 89.2955 41.6008 92.2152 38.6794Z" fill="#575A89"/>
<path d="M67.3337 26.5984C67.3337 23.2 68.683 19.9407 71.0848 17.5377C73.4865 15.1346 76.744 13.7846 80.1407 13.7846V9.51331C76.566 9.51327 73.0815 10.6357 70.1782 12.7223C67.275 14.8089 65.0994 17.7545 63.9582 21.144C62.817 24.5334 62.7677 28.1957 63.8173 31.6146C64.8669 35.0335 66.9624 38.0367 69.8084 40.2008L72.3923 36.7991C70.819 35.6052 69.5435 34.0629 68.6659 32.2931C67.7882 30.5233 67.3323 28.5741 67.3337 26.5984Z" fill="#B725E8"/>
<path d="M112.182 112.005C110.905 112.005 109.64 111.753 108.46 111.264C107.28 110.775 106.208 110.058 105.304 109.154C104.401 108.251 103.685 107.178 103.196 105.997C102.707 104.817 102.456 103.551 102.456 102.273V90.9394C102.456 68.2613 120.83 49.877 143.496 49.877H143.496C166.162 49.8769 184.537 68.2612 184.537 90.9394V99.8497C184.537 101.446 184.223 103.026 183.612 104.501C183.002 105.976 182.107 107.316 180.979 108.445C179.851 109.573 178.511 110.469 177.037 111.079C175.564 111.69 173.984 112.005 172.388 112.005" fill="#F6F2F8"/>
<path d="M176.463 124.236V123.848C179.633 123.844 182.671 122.583 184.913 120.341C187.154 118.098 188.414 115.058 188.418 111.887V88.6097C188.418 66.0747 170.094 47.7413 147.571 47.7413C125.048 47.7413 106.725 66.0747 106.725 88.6097V114.311C106.728 116.839 107.733 119.263 109.52 121.051C111.307 122.839 113.73 123.845 116.257 123.848V124.236C113.627 124.233 111.105 123.186 109.246 121.326C107.386 119.465 106.34 116.942 106.337 114.311V88.6097C106.337 65.8607 124.835 47.353 147.571 47.353C170.308 47.353 188.806 65.8607 188.806 88.6097V111.887C188.802 115.161 187.501 118.3 185.187 120.615C182.873 122.93 179.736 124.232 176.463 124.236Z" fill="#392D3E"/>
<path d="M189 109.287H106.143V143.457H189V109.287Z" fill="#392D3E"/>
<path d="M160.233 74.1639L152.325 79.7886L157.947 87.7005L165.855 82.0758L160.233 74.1639Z" fill="#B725E8"/>
<path d="M160.869 72.0438L152.962 77.6685L158.583 85.5803L166.491 79.9557L160.869 72.0438Z" stroke="#392D3E" stroke-width="2" stroke-miterlimit="10"/>
<path d="M145.534 70.4567C147.784 70.4567 149.609 68.6314 149.609 66.3796C149.609 64.1279 147.784 62.3025 145.534 62.3025C143.283 62.3025 141.459 64.1279 141.459 66.3796C141.459 68.6314 143.283 70.4567 145.534 70.4567Z" fill="#B725E8"/>
<path d="M144.37 69.8743C146.62 69.8743 148.445 68.0489 148.445 65.7972C148.445 63.5454 146.62 61.72 144.37 61.72C142.119 61.72 140.295 63.5454 140.295 65.7972C140.295 68.0489 142.119 69.8743 144.37 69.8743Z" stroke="#392D3E" stroke-width="2" stroke-miterlimit="10"/>
<path d="M133.49 82.6725L138.367 85.4813L143.244 88.2901L138.375 91.1116L133.505 93.9332L133.498 88.3029L133.49 82.6725Z" fill="#B725E8"/>
<path d="M132.707 84.8049L137.583 87.6138L142.461 90.4226L137.591 93.2442L132.721 96.0655L132.714 90.4352L132.707 84.8049Z" stroke="#392D3E" stroke-width="2" stroke-miterlimit="10"/>
<path d="M113.601 73.5289C114.34 70.8856 115.706 68.46 117.583 66.4581C119.46 64.4562 121.792 62.9372 124.382 62.03C125.086 61.7877 124.783 60.6621 124.072 60.9067C121.291 61.8716 118.783 63.4952 116.765 65.6392C114.746 67.7831 113.275 70.3837 112.478 73.2192C112.278 73.9428 113.401 74.2517 113.601 73.5288V73.5289Z" fill="white"/>
<path d="M111.393 79.8906C112.142 79.8906 112.143 78.7257 111.393 78.7257C110.643 78.7257 110.642 79.8906 111.393 79.8906Z" fill="white"/>
<path d="M63.036 67.861L44.9102 62.1064L37.8675 84.3132L55.9933 90.0677L63.036 67.861Z" fill="#F6F2F8"/>
<path d="M54.685 69.4658L47.568 67.2062L47.443 67.6002L54.5601 69.8597L54.685 69.4658Z" fill="#392D3E"/>
<path d="M57.6949 71.2218L47.3373 67.9335L47.2124 68.3274L57.57 71.6157L57.6949 71.2218Z" fill="#392D3E"/>
<path d="M53.897 71.9505L46.78 69.691L46.655 70.0849L53.7721 72.3444L53.897 71.9505Z" fill="#392D3E"/>
<path d="M52.9745 74.8594L45.8574 72.5999L45.7325 72.9938L52.8496 75.2534L52.9745 74.8594Z" fill="#392D3E"/>
<path d="M56.907 73.7065L46.5493 70.4182L46.4244 70.8121L56.782 74.1005L56.907 73.7065Z" fill="#392D3E"/>
<path d="M56.6763 74.4338L46.3187 71.1454L46.1938 71.5394L56.5514 74.8277L56.6763 74.4338Z" fill="#392D3E"/>
<path d="M56.4457 75.161L46.0881 71.8727L45.9631 72.2666L56.3207 75.5549L56.4457 75.161Z" fill="#392D3E"/>
<path d="M49.0252 75.5401L45.3 74.3574L44.9733 75.3877L48.6984 76.5703L49.0252 75.5401Z" fill="#B725E8"/>
<path d="M25.4199 147C39.459 147 50.8398 145.522 50.8398 143.699C50.8398 141.877 39.459 140.399 25.4199 140.399C11.3809 140.399 0 141.877 0 143.699C0 145.522 11.3809 147 25.4199 147Z" fill="#392D3E"/>
<path d="M13.413 52.3282L12.5686 54.3347L13.5186 67.3242C13.5186 67.3242 12.9908 68.0635 13.5186 68.5915C14.0463 69.1195 13.9408 69.3307 13.9408 69.3307C13.9408 69.3307 13.0964 69.3307 13.5186 69.9644C13.9408 70.598 13.9408 70.9148 13.9408 70.9148L13.7297 71.5484C13.7297 71.5484 14.1519 72.0765 14.1519 72.4989C14.1519 72.9213 16.8961 85.9108 16.8961 85.9108L19.5349 80.7361L18.0572 60.143L13.413 52.3282Z" fill="#B725E8"/>
<path d="M40.5085 85.36C40.5085 85.36 46.2714 85.1271 48.1088 87.1611C49.9462 89.1951 40.89 87.7236 40.3778 87.1505C39.8656 86.5774 40.5085 85.36 40.5085 85.36Z" fill="#FFB9B9"/>
<path d="M12.0409 136.601L10.8798 140.403C10.8798 140.403 9.19107 144.099 11.5131 144.627C13.8352 145.155 16.0517 143.149 16.0517 143.149V140.614L16.8961 136.601H12.0409Z" fill="#2F2E41"/>
<path d="M31.0397 136.601C31.0397 136.601 30.5119 143.783 31.673 144.205C32.834 144.627 36.9504 144.733 37.056 144.205C37.1615 143.677 38.4281 143.149 37.4782 142.41C36.5282 141.67 35.8949 137.341 35.8949 137.341L31.0397 136.601Z" fill="#2F2E41"/>
<path d="M20.3792 68.5915V71.7597C20.3792 71.7597 16.8961 79.0464 15.6295 90.5574C14.3629 102.068 10.0354 137.129 11.0909 137.763C12.1464 138.397 23.5457 138.819 23.8624 137.974C24.179 137.129 24.4957 112.418 24.4957 112.418L28.401 94.9929C28.401 94.9929 29.1398 101.224 29.7731 102.28C30.4064 103.336 28.7176 137.657 29.7731 138.185C30.8286 138.714 45.0777 139.664 44.8666 137.974C44.6555 136.285 39.9058 90.4518 39.9058 90.4518C39.9058 90.4518 37.4782 68.8027 36.7394 68.5915C36.0005 68.3803 29.2454 68.1691 28.1899 68.3803C27.1344 68.5915 20.3792 68.5915 20.3792 68.5915Z" fill="#2F2E41"/>
<path d="M28.401 42.4013C31.7237 42.4013 34.4173 39.7063 34.4173 36.3818C34.4173 33.0573 31.7237 30.3623 28.401 30.3623C25.0783 30.3623 22.3847 33.0573 22.3847 36.3818C22.3847 39.7063 25.0783 42.4013 28.401 42.4013Z" fill="#FFB9B9"/>
<path d="M29.6676 41.4509C29.6676 41.4509 26.6066 46.2031 27.3455 47.4704C28.0843 48.7377 19.5349 46.2031 19.5349 46.2031C19.5349 46.2031 24.7068 39.8668 24.6012 39.1276C24.4957 38.3883 29.6676 41.4509 29.6676 41.4509Z" fill="#FFB9B9"/>
<path d="M36.0005 48.5264C36.0005 48.5264 30.4064 46.7311 29.6676 45.9919C29.1936 45.5075 28.7693 44.9768 28.401 44.4078C28.401 44.4078 21.6458 43.4574 21.4348 43.4574C21.2237 43.4574 19.6404 45.3583 19.2182 45.7807C18.796 46.2031 13.413 49.0545 13.413 49.7937C13.413 50.5329 12.5686 54.3347 12.5686 54.3347C12.5686 54.3347 14.4685 58.2421 15.6296 59.087C16.7906 59.9318 17.1072 59.7206 17.2128 61.0935C17.3183 62.4664 18.796 64.6841 18.796 64.6841C18.796 64.6841 19.746 67.113 19.5349 67.8522C19.3238 68.5915 18.3738 69.2251 20.5904 69.0139C22.8069 68.8027 33.784 69.4363 33.784 68.2747C33.784 67.113 31.673 56.0244 31.673 56.0244L36.0005 48.5264Z" fill="#B725E8"/>
<path d="M33.9951 48.7377L36.0005 48.5264C36.0005 48.5264 36.7393 48.9489 36.8449 53.0675C36.9504 57.1861 36.9504 67.113 37.6893 67.9579C38.4281 68.8027 41.489 81.8978 41.489 81.8978C41.489 81.8978 42.3334 82.109 42.3334 82.8482C42.3334 83.5875 43.2834 84.2211 42.8612 85.0659C42.439 85.9108 43.2834 85.6996 42.7556 86.2276C42.2279 86.7556 39.6947 87.8117 39.5892 87.178C39.4836 86.5444 39.9058 86.4388 39.4836 86.2276C39.0614 86.0164 39.0614 85.9108 38.9559 85.1715C38.8503 84.4323 37.9004 83.6931 38.0059 83.3762C38.1115 83.0594 33.3618 73.8718 33.3618 73.5549C33.3618 73.2381 33.0451 72.0765 32.6229 71.8653C32.2007 71.654 31.5675 71.4428 31.8841 70.9148C32.2007 70.3868 31.0397 54.546 31.0397 54.546L33.9951 48.7377Z" fill="#B725E8"/>
<path d="M33.4886 32.5643C31.6437 30.5606 28.7464 29.4971 26.0895 30.0931C23.4325 30.6891 21.1952 33.0493 20.9874 35.7657C20.945 36.3214 20.9803 36.8889 20.8366 37.4273C20.5949 38.3329 19.8757 39.0507 19.6222 39.953C19.4524 40.5574 19.5027 41.2081 19.3227 41.8095C18.9901 42.9208 17.9607 43.6454 17.1761 44.4995C16.8584 44.8125 16.6224 45.1989 16.489 45.6246C16.42 46.0021 16.4025 46.3872 16.437 46.7694C16.4701 48.8295 15.7046 50.8225 14.3011 52.3302C15.1263 51.7168 16.0179 51.1981 16.9591 50.7841C16.4926 52.2704 16.919 54.029 18.0928 55.0526C19.2665 56.0762 21.1465 56.2352 22.4156 55.3327C23.1695 54.7965 23.6592 53.9736 24.1269 53.1751L25.8977 50.1521C26.218 49.6052 26.5524 49.0425 27.0642 48.669C27.4709 48.3722 27.9651 48.2143 28.3745 47.9212C29.4072 47.1819 29.6845 45.7348 29.4922 44.4789C29.2999 43.223 28.7355 42.057 28.4117 40.8284C28.1557 39.8567 28.0753 38.7431 28.6513 37.9199C29.416 36.8271 30.9874 36.6877 32.0264 35.8519C32.4176 35.5372 32.5924 35.1543 32.8726 34.7604C33.1312 34.3967 33.1971 34.5271 33.5979 34.5105C34.6983 34.4648 33.8964 33.0072 33.4886 32.5643Z" fill="#2F2E41"/>
<path d="M28.2336 39.6356C28.5015 39.6356 28.7187 39.114 28.7187 38.4707C28.7187 37.8273 28.5015 37.3058 28.2336 37.3058C27.9657 37.3058 27.7485 37.8273 27.7485 38.4707C27.7485 39.114 27.9657 39.6356 28.2336 39.6356Z" fill="#FFB9B9"/>
<path d="M81.693 122.489C85.1224 122.489 87.9025 119.707 87.9025 116.276C87.9025 112.845 85.1224 110.063 81.693 110.063C78.2636 110.063 75.4836 112.845 75.4836 116.276C75.4836 119.707 78.2636 122.489 81.693 122.489Z" fill="#F6F2F8"/>
<path d="M19.5986 15.7067C23.028 15.7067 25.808 12.9252 25.808 9.49395C25.808 6.06273 23.028 3.28118 19.5986 3.28118C16.1692 3.28118 13.3891 6.06273 13.3891 9.49395C13.3891 12.9252 16.1692 15.7067 19.5986 15.7067Z" fill="#F6F2F8"/>
<path d="M149.609 30.2679C153.038 30.2679 155.818 27.4863 155.818 24.0551C155.818 20.6239 153.038 17.8424 149.609 17.8424C146.179 17.8424 143.399 20.6239 143.399 24.0551C143.399 27.4863 146.179 30.2679 149.609 30.2679Z" fill="#F6F2F8"/>
</g>
<defs>
<clipPath id="clip0_2_222">
<rect width="189" height="147" fill="white"/>
</clipPath>
</defs>
</svg>
